<?xml version="1.0" encoding="UTF-8" standalone="no"?>
<svg
   xmlns:dc="http://purl.org/dc/elements/1.1/"
   xmlns:cc="http://creativecommons.org/ns#"
   xmlns:rdf="http://www.w3.org/1999/02/22-rdf-syntax-ns#"
   xmlns:svg="http://www.w3.org/2000/svg"
   xmlns="http://www.w3.org/2000/svg"
   xmlns:sodipodi="http://sodipodi.sourceforge.net/DTD/sodipodi-0.dtd"
   xmlns:inkscape="http://www.inkscape.org/namespaces/inkscape"
   version="1.1"
   id="svg2"
   xml:space="preserve"
   width="5333.3335"
   height="5333.3335"
   viewBox="0 0 5333.3335 5333.3335"
   sodipodi:docname="logo.svg"
   inkscape:version="1.0.1 (1.0.1+r74)"><metadata
     id="metadata8"><rdf:RDF><cc:Work
         rdf:about=""><dc:format>image/svg+xml</dc:format><dc:type
           rdf:resource="http://purl.org/dc/dcmitype/StillImage" /><dc:title></dc:title></cc:Work></rdf:RDF></metadata><defs
     id="defs6" /><sodipodi:namedview
     pagecolor="#ffffff"
     bordercolor="#666666"
     borderopacity="1"
     objecttolerance="10"
     gridtolerance="10"
     guidetolerance="10"
     inkscape:pageopacity="0"
     inkscape:pageshadow="2"
     inkscape:window-width="1920"
     inkscape:window-height="1026"
     id="namedview4"
     showgrid="false"
     inkscape:zoom="0.11468388"
     inkscape:cx="3964.6388"
     inkscape:cy="1788.1048"
     inkscape:window-x="1920"
     inkscape:window-y="25"
     inkscape:window-maximized="1"
     inkscape:current-layer="g12"
     inkscape:document-rotation="0" /><g
     id="g10"
     inkscape:groupmode="layer"
     inkscape:label="ink_ext_XXXXXX"
     transform="matrix(1.3333333,0,0,-1.3333333,0,5333.3333)"><g
       id="g12"
       transform="matrix(0.1,0,0,0.1,122.38281,-276.51707)"><g
         id="g102"
         transform="scale(2.04587)" /><g
         id="g138"
         transform="matrix(2.964078,0,0,2.964078,-27842.673,-8905.2657)"><path
           d="m 13859.8,15188.7 c -504,-204 -1283.8,-161.3 -1815.5,-96.9 -318.9,38.6 -542.7,332.8 -495.8,650.5 42.9,290 298.2,500.9 590.9,487.2 497.4,-23.3 1243.3,-34.3 1715.7,70.5 l 4.7,-1111.3"
           style="fill:#ffffff;fill-opacity:1;fill-rule:nonzero;stroke:none"
           id="path140" /></g><g
         id="g142"
         transform="matrix(2.9893768,0,0,2.9893768,-27842.673,-8905.2657)"><path
           d="m 12009.8,15967 c -217.5,0 -402.4,-158.5 -434.6,-376.3 -17.6,-118.8 12.8,-236.7 85.6,-332.1 72.6,-95.2 177.9,-155.4 296.6,-169.8 755,-91.2 1372.2,-60.1 1737.9,87.8 115.4,46.9 145.7,233.8 153.4,312.1 25.5,259.8 -55.4,494.2 -103.7,546.3 -474.3,-100.6 -1192.1,-93 -1714.2,-68.5 -7,0.2 -14,0.5 -21,0.5 m 739.4,-1181.4 c -288.8,0 -576.1,23.8 -821.9,53.5 -186.7,22.7 -352.3,117.4 -466.4,266.9 -114.2,149.8 -162,335 -134.4,521.4 52.1,353.2 360.1,607.5 716,590.2 514.3,-24.1 1221.1,-31.9 1668,67.2 68.1,15.1 237.1,15.2 337.8,-308.7 103.4,-332.3 92.6,-890.3 -258.7,-1032.4 -292.1,-118.4 -667.5,-158.1 -1040.4,-158.1"
           style="fill:#371a45;fill-opacity:1;fill-rule:nonzero;stroke:none"
           id="path144" /></g><g
         id="g146"
         transform="matrix(3.6500601,0,0,3.6500601,-27842.673,-8905.2657)"><path
           d="m 14385,12334.2 c 409.2,-165.7 1042.5,-131 1474.3,-78.7 258.9,31.3 440.7,270.2 402.5,528.2 -34.8,235.5 -242,406.8 -479.8,395.6 -403.8,-18.9 -1009.5,-27.8 -1393.2,57.3 l -3.8,-902.4"
           style="fill:#ffffff;fill-opacity:1;fill-rule:nonzero;stroke:none"
           id="path148" /></g><g
         id="g150"
         transform="matrix(3.6693925,0,0,3.6693925,-27842.673,-8905.2657)"><path
           d="m 14307.2,13063.4 c -39.5,-42.4 -105.3,-233.3 -84.5,-445 6.2,-63.8 30.9,-216.1 125,-254.3 297.9,-120.5 800.6,-146 1415.7,-71.5 96.7,11.7 182.6,60.8 241.7,138.3 59.3,77.7 84.1,173.8 69.8,270.5 -27.1,183.3 -187,313.9 -371.2,306.2 -425.4,-19.9 -1010.1,-26.1 -1396.5,55.8 m 811.2,-1017.9 c -303.8,0 -609.6,32.4 -847.6,128.8 -286.1,115.8 -295,570.4 -210.8,841.1 82.1,263.9 219.8,263.8 275.2,251.5 364.1,-80.7 940,-74.3 1358.9,-54.7 290.7,13.6 540.9,-193.1 583.4,-480.8 22.5,-151.9 -16.4,-302.7 -109.5,-424.8 -93,-121.8 -227.9,-199 -379.9,-217.4 -200.3,-24.2 -434.5,-43.7 -669.7,-43.7"
           style="fill:#371a45;fill-opacity:1;fill-rule:nonzero;stroke:none"
           id="path152" /></g><g
         id="g158"
         transform="matrix(3.229399,0,0,3.229399,-27842.673,-8905.2657)"><path
           d="m 16300,15431.8 c -22.5,1.5 -45,2.5 -67.4,3 12.6,24.3 24.4,47.9 35.5,70.9 12.8,-23.4 23.5,-48.2 31.9,-73.9"
           style="fill:#b9afbe;fill-opacity:1;fill-rule:nonzero;stroke:none"
           id="path160" /></g><g
         id="g166"
         transform="matrix(3.1546769,0,0,3.1546769,-27842.673,-8905.2657)"><path
           d="m 16300,14823.5 c 0,-268.8 -217.9,-486.6 -486.6,-486.6 -268.8,0 -486.7,217.8 -486.7,486.6 0,268.7 217.9,486.6 486.7,486.6 268.7,0 486.6,-217.9 486.6,-486.6"
           style="fill:#22a7f0;fill-opacity:1;fill-rule:nonzero;stroke:none"
           id="path168" /></g><g
         id="g170"
         transform="matrix(3.1719656,0,0,3.1719656,-27842.673,-8905.2657)"><path
           d="m 15727.2,15137.8 c -217.9,0 -395.2,-177.2 -395.2,-395.1 0,-217.9 177.3,-395.1 395.2,-395.1 217.9,0 395.1,177.2 395.1,395.1 0,217.9 -177.2,395.1 -395.1,395.1 m 0,-967.9 c -315.9,0 -572.9,256.9 -572.9,572.8 0,315.8 257,572.9 572.9,572.9 315.8,0 572.8,-257.1 572.8,-572.9 0,-315.9 -257,-572.8 -572.8,-572.8"
           style="fill:#371a45;fill-opacity:1;fill-rule:nonzero;stroke:none"
           id="path172" /></g><g
         id="g194"
         transform="matrix(3.8468135,0,0,3.8468135,-27842.673,-8905.2657)"><path
           d="m 8447.75,10969.7 c -575.77,415.6 -195.29,845.4 115.53,642.6 -37.43,70.5 73.03,157 151.86,118.7 -38.1,424.3 399.06,599.2 627.13,288.2 -61.61,84 157.3,264.1 309.23,147.9 132.38,711.1 1103.6,835.3 1511,291.3 1.5,110.6 280.2,109.1 281.3,-3.6 -2.2,241.1 582.6,419.6 758.5,-60.3 51.6,71.5 103.2,221 302.7,219.9 186.3,-1.2 351.9,-101.5 313.6,-200.8 232.3,603.7 1379.8,603.7 1595.8,-51.6 -16.4,49.8 174.1,103.9 261.4,79.1 121.2,-34.6 149.9,-197.5 54.7,-270 984.8,303.6 576.5,-403.5 576.5,-403.5 0,0 207.7,-38.4 253.2,-84.9 39.5,-40.4 6.1,-116.7 6.1,-116.7 0,0 733.7,123.5 212.7,-743.5 -2783,-4631.12 -7743.13,-203.1 -7293.03,129.2 l -38.22,18"
           style="fill:#fcd57e;fill-opacity:1;fill-rule:nonzero;stroke:none"
           id="path196" /></g><g
         id="g198"
         transform="matrix(3.6104793,0,0,3.6104793,-27842.673,-8905.2657)"><path
           d="m 9120.97,12105.7 c -58.23,38.1 -118.93,55.2 -175.86,55.2 -56.86,0 -110.08,-17.1 -153.67,-47.4 -9.96,51.7 -2.54,95.8 15.8,129.4 28.37,51.9 81.2,80.6 140.34,80.6 23.94,0 48.93,-4.7 73.72,-14.5 18.22,-7.2 37.08,-10.6 55.63,-10.6 60.24,0 117.3,35.9 140.59,93.8 2.86,4.8 14.31,12.3 22.9,12.7 19.97,0.9 38.97,5.6 56.22,13.2 -14.51,-55.3 -19.98,-117.6 -13.86,-186 -14.25,6.9 -29.41,10 -44.7,10 -74.56,0 -150.1,-74.1 -117.11,-136.4 m 829.98,433.5 c -84.97,115.9 -197.2,168.5 -305.52,168.5 -95.84,0 -188.55,-41.2 -256.6,-116 10.28,120.8 69.81,215.8 163.36,257.9 30.91,13.9 63.24,20.8 95.51,20.8 59.15,0 118.29,-22.9 168.77,-67.1 27.98,-24.5 63.63,-37.6 100.33,-37.6 7.55,0 15.09,0.5 22.7,1.7 45.03,6.7 84.6,33 108.7,72 15.8,25.8 66.3,60.5 115.6,60.5 10.8,0 21.6,-1.6 31.9,-5.4 17.3,-6.4 35.3,-9.5 53.4,-9.5 24.6,0 49.1,5.9 71.3,17.4 16.6,8.7 31.3,20.3 43.6,34.1 -38.5,-71.3 -67.1,-151.2 -83.6,-239.6 -37.5,28.7 -78.8,40.4 -119.3,40.4 -134.5,0 -260.63,-129.3 -210.15,-198.1 M 15692,12701 c 66.8,50.8 76.3,143.4 38.1,211.3 21.6,-11.1 45.4,-16.8 69.6,-16.8 12.9,0 25.9,1.6 38.7,4.9 127.5,32.9 218.7,44 283.6,44 105.3,0 141.8,-29.2 152.9,-42.4 22.8,-27.2 25.1,-81.4 8.6,-149.3 -40.4,18.4 -93.7,29.1 -163.5,29.1 -103.3,0 -242.4,-23.5 -428,-80.8 m -336.9,203.3 c -117.4,356.2 -493.2,530.7 -866.1,530.7 -357.8,0 -712.8,-160.6 -834,-475.6 40.7,106 -135.6,212.6 -334.1,213.9 -0.8,0 -1.7,0 -2.5,0 -210.7,0 -265.4,-158.2 -320.1,-234.4 -86.2,235.5 -264.8,322.3 -432.2,322.3 -195.7,0 -376.1,-118.5 -376.1,-256.6 -1.6,59.8 -77.3,89.8 -152.2,89.8 -73.7,0 -146.7,-29 -147.6,-87.3 -181.1,242.1 -467.2,360 -749.1,360 -294.9,0 -585.3,-128.9 -746.8,-379.4 1.4,3.9 2.6,8 3.7,12.1 67.5,255.9 264,440.2 539.1,505.9 68.8,16.4 138.4,24.3 207.3,24.3 240.4,0 471.9,-96.7 625.5,-269.5 30.4,-34.3 73,-51.8 115.6,-51.8 35.9,0 71.9,12.4 100.7,37.5 8.8,6.5 31.4,10.8 55,10.8 20.4,0 41.5,-3.2 55.2,-10.8 23.7,-13 49.7,-19.7 75.9,-19.7 13.4,0 26.9,1.6 40,5.2 40.6,10.8 74.2,37 94.6,73.9 32.5,58.7 140.4,118.2 264.3,118.2 75.6,-0.5 215.4,-25.4 302.4,-187.1 25.8,-48.1 73.8,-78 128.4,-80.3 1.6,0 3,-0.1 4.6,0 52.4,0 102.2,25.9 130.8,70.1 44.7,68.9 89.9,109.5 182.2,109.5 1.1,0 2.2,-0.1 3.3,-0.1 108.3,-0.6 200.3,-39.5 231.8,-75.7 29.1,-33.5 70.3,-52 114.2,-52 3.9,0 7.7,0.2 11.5,0.4 49.2,3.7 94.5,30.8 121.1,72.5 125.3,196.7 390.4,316.8 688.8,316.8 25,0 50.3,-0.9 75.8,-2.6 314.9,-21.5 565,-169.4 669,-395.7 17.5,-37.9 50.1,-67.4 89.6,-80.8 16,-5.4 32.7,-8.2 49.4,-8.2 24.9,0 49.7,6 72,17.7 35.1,18.5 96,29.8 135.2,29.8 10.8,0 20.1,-0.9 26.5,-2.8 37.7,-10.7 47.2,-50.4 42,-75.2 -7.6,-36 -2,-72.6 14.9,-103.9 -9.6,5.1 -20,9.3 -31.2,12.5 -16,4.6 -35.3,6.6 -56.3,6.6 -100,0 -236.5,-47 -222.1,-91"
           style="fill:#feeecb;fill-opacity:1;fill-rule:nonzero;stroke:none"
           id="path200" /></g><g
         id="g202"
         transform="matrix(3.7942896,0,0,3.7942896,-27842.673,-8905.2657)"><path
           d="m 16164.4,11331.1 c -81.6,192.3 -385.3,141.3 -385.3,141.3 0,0 33.9,77.3 -6.1,118 -46.1,47.4 -256.6,86.2 -256.6,86.2 0,0 67.5,117.1 82.2,236.4 64.9,-15.6 149.8,-40.7 177.1,-68.5 40,-41 6.1,-118.4 6.1,-118.4 0,0 518.2,87.1 382.6,-395"
           style="fill:#ffffff;fill-opacity:1;fill-rule:nonzero;stroke:none"
           id="path204" /></g><g
         id="g206"
         transform="matrix(3.6325365,0,0,3.6325365,-27842.673,-8905.2657)"><path
           d="m 16293.1,12443.5 c -46.3,11.4 -83,18.3 -83,18.3 0,0 34.1,59.4 60.1,137.6 25.7,-45.6 29.8,-100.9 22.9,-155.9"
           style="fill:#ffffff;fill-opacity:1;fill-rule:nonzero;stroke:none"
           id="path208" /></g><g
         id="g210"
         transform="matrix(3.8025346,0,0,3.8025346,-27842.673,-8905.2657)"><path
           d="m 11251.4,12726.6 v -0.1 0.1 m -2486.65,-750.8 h -0.18 0.18 m -110.51,-966.9 c -0.87,-204.3 1007.98,-1279.78 2497.16,-1810.67 1369.1,-488.15 3300.5,-571.98 4726.6,1801.27 215.1,357.8 180.9,493.4 156.2,535.1 -42.6,72 -168.5,75.1 -220.7,73 -41.2,-1.7 -81.6,14.4 -110.4,44 -26.6,27.2 -41.4,63.9 -41.4,101.8 -20.5,9.5 -64.2,25.2 -139.8,42.5 -42.9,9.9 -78.7,38.1 -98.1,77.6 -19.5,39.4 -20.2,84.9 -1.9,124.8 51.8,113.7 64,212.6 31,252 -17.1,20.4 -97.3,80.4 -414.5,-1.4 -49.1,-12.8 -100.4,0.7 -137.2,35.9 -36.6,34.9 -52.2,85.3 -41.8,134.7 5,23.5 -4.1,61.2 -39.9,71.4 -28.4,8.1 -111,-3.3 -153.5,-25.6 -35.5,-18.6 -77.5,-22 -115.3,-9.1 -37.5,12.8 -68.5,40.7 -85,76.7 -98.8,214.9 -336.3,355.3 -635.3,375.7 -312.1,21.1 -597,-95.8 -726,-298.3 -25.2,-39.6 -68.2,-65.4 -114.9,-68.8 -45.9,-3.3 -89.3,14.4 -119.4,48.9 -29.9,34.4 -117.3,71.4 -220.1,72 -89.7,1 -133.2,-37.7 -176.1,-103.9 -28,-43.2 -77.3,-68.1 -128.6,-66.6 -51.8,2.1 -97.4,30.6 -122,76.2 -82.5,153.6 -215.2,177.2 -287,177.7 -117.6,0 -220.1,-56.5 -251,-112.3 -19.3,-34.9 -51.2,-59.8 -89.8,-70.1 -37,-9.9 -76.1,-5 -110.1,13.8 -28.1,15.6 -89.1,11.5 -104.6,-0.1 -60,-52.2 -152.3,-46.3 -205.4,13.6 -187.6,211.3 -497.9,302.7 -790.7,232.9 -261.2,-62.4 -447.83,-237.4 -511.89,-480.3 -10.44,-39.9 -37.31,-73.6 -73.7,-92.6 -36.44,-19 -79.56,-21.7 -118.36,-7.5 -54.67,20 -121.75,-22.4 -140.1,-52.3 -22.8,-37 -60.42,-61.9 -103.17,-68.4 -42.19,-6.3 -84.75,6.1 -116.81,34.1 -74.13,65 -167.91,81.4 -250.93,44 -97.3,-43.8 -155.86,-147.8 -156.6,-278.3 -0.44,-77.3 -61.72,-140.5 -139.43,-144 -8.15,-0.3 -19.03,-7.5 -21.74,-12 -28.92,-72 -112.8,-108 -186.32,-79 -81.79,32.2 -165.37,6.5 -203.24,-62.8 -49.29,-90.2 -15.56,-261.3 241.6,-446.9 0.87,-0.6 1.67,-1.2 2.54,-1.9 22.36,-5 43.06,-17.8 57.76,-37.7 29.59,-40.1 24.4,-95.1 -10.07,-129.1 M 12630.3,8727.01 c -213,0 -416.5,17.48 -607,46.02 -1810.4,271.26 -3431.08,1665.47 -3557.48,2173.87 -8.89,35.8 -10.56,66.5 -7.53,92.7 -332.72,253.8 -358.79,516 -269.34,679.7 78.58,143.7 243.83,209.4 405.37,166.4 29.59,39.4 73.94,69.2 123.05,82.6 14.95,187.2 116.2,342.8 271.26,412.6 136.83,61.6 292.68,45.1 418.4,-41.4 67.52,71.5 178.71,120.6 289.1,103 93.9,286.4 330.77,498.9 642.77,573.4 347.4,82.7 716.7,-19.6 953.9,-261.4 73.3,38 170.7,39 245.5,14.3 81.9,107 236.6,174.5 399.3,174.7 170.2,-1.1 318.7,-78.2 417.5,-214.2 58.6,67.7 148.8,131.3 296.2,130.8 122.1,-0.8 240.4,-37.2 319.7,-95.9 178.3,233.3 513.5,366.4 872.8,341.7 351.9,-24.1 638.8,-189.1 778.6,-444.9 76.3,26.9 179.2,40.6 251.3,20 103.1,-29.4 174.1,-120.7 183.6,-224.3 272.6,60.1 452,34 547.1,-79.3 78,-93.1 85.1,-235 21.3,-403.6 121.8,-32.9 163.7,-62.8 186.4,-86 16.8,-17.1 35.4,-43.8 43.6,-82.3 162.9,-4.3 285.7,-63.9 348.6,-170.2 95.7,-161.5 44.4,-402.8 -156.8,-737.6 C 15010.6,9172.16 13702.8,8727.07 12630.3,8727.01"
           style="fill:#371a45;fill-opacity:1;fill-rule:nonzero;stroke:none"
           id="path212" /></g><g
         id="g214"
         transform="matrix(2.4266004,0,0,2.4266004,-27842.673,-8905.2657)"><path
           d="m 15206.5,5718.71 c -387.6,53.43 -774.8,115 -1160.8,183.92 L 13865.2,7565.31 12916.6,16300 H 14386 l 60.4,-777.9 664.1,-8563.93 2.3,-32.14 93.7,-1207.32"
           style="fill:#f92323;fill-opacity:1;fill-rule:nonzero;stroke:none"
           id="path216" /></g><g
         id="g218"
         transform="matrix(2.5067253,0,0,2.5067253,-27842.673,-8905.2657)"><path
           d="m 16300,5361.99 c -527.8,43.57 -1054.4,101.21 -1579.5,173.92 l -90.8,1168.73 -2.2,31.11 -642.8,8290.15 -58.5,753.1 H 15815 l 34.8,-753.1 400,-8585.14 1.5,-31.11 48.7,-1047.66"
           style="fill:#ffffff;fill-opacity:1;fill-rule:nonzero;stroke:none"
           id="path220" /></g><g
         id="g222"
         transform="matrix(2.7477339,0,0,2.7477339,-27842.673,-8905.2657)"><path
           d="m 16300,4813.71 c -477,12.99 -954.1,38.98 -1429.7,77.97 l -44.5,955.76 -1.3,28.38 -364.9,7832.18 -31.8,687 h 1723.4 l 10.6,-687 120.4,-7749.42 0.7,-49.25 17.1,-1095.62"
           style="fill:#f92323;fill-opacity:1;fill-rule:nonzero;stroke:none"
           id="path224" /></g><g
         id="g226"
         transform="matrix(3.0131959,0,0,3.0131959,-27842.673,-8905.2657)"><path
           d="m 16300,13126.8 -9.7,-626.5 -104.7,-6751.08 -0.7,-43.35 -20.5,-1315.92 c -433.5,-12.16 -867.2,-12.16 -1300.4,-0.31 l -15.6,999.1 -0.6,44.91 -109.8,7066.65 -9.6,626.5 H 16300"
           style="fill:#ffffff;fill-opacity:1;fill-rule:nonzero;stroke:none"
           id="path228" /></g><g
         id="g230"
         transform="matrix(3.3037218,0,0,3.3037218,-27842.673,-8905.2657)"><path
           d="m 16300,11972.4 -26.7,-571.3 -254,-5458.39 v -0.57 L 15932,4069.03 c -395.9,-32.71 -792.4,-54.33 -1189.1,-65.13 l 18.7,1200.2 0.6,39.53 95.6,6157.47 8.8,571.3 H 16300"
           style="fill:#f92323;fill-opacity:1;fill-rule:nonzero;stroke:none"
           id="path232" /></g><g
         id="g234"
         transform="matrix(3.5942006,0,0,3.5942006,-27842.673,-8905.2657)"><path
           d="m 16300,11004.9 -40.5,-525.2 -275.6,-3551.46 -9.9,-127.84 -228,-2938.66 c -366.2,-50.71 -733.5,-91.17 -1101.6,-121.56 l 80.3,1721.73 v 0.53 l 233.4,5017.26 24.6,525.2 H 16300"
           style="fill:#ffffff;fill-opacity:1;fill-rule:nonzero;stroke:none"
           id="path236" /></g><g
         id="g238"
         transform="matrix(3.8128937,0,0,3.8128937,-27842.673,-8905.2657)"><path
           d="m 16300,10373.6 -188.5,-1736.29 -529.8,-4880.76 -185.4,-31.23 c -184,-31.05 -368.6,-59.45 -553.4,-85.08 l 214.9,2770.1 9.3,120.5 259.8,3347.73 38.2,495.03 h 934.9"
           style="fill:#f92323;fill-opacity:1;fill-rule:nonzero;stroke:none"
           id="path240" /></g><g
         id="g242"
         transform="matrix(3.840894,0,0,3.840894,-27842.673,-8905.2657)"><path
           d="m 8963.12,3812.77 c 220.66,-38.53 441.44,-73.02 657.39,-102.87 336.68,-46.6 681.69,-84.58 1025.59,-112.9 336.3,-27.58 678.7,-46.23 1017.4,-55.47 338,-9.29 679.4,-9.17 1014.7,0.25 339.9,9.23 682.2,28.01 1017.5,55.71 341.8,28.14 686.8,66.24 1025.5,113.21 182.2,25.26 366.1,53.51 546.6,83.91 l 111,18.71 703,6476.98 H 8259.69 l 703.43,-6477.53 m 3204.48,-473.85 c -169.9,0 -340.1,2.32 -509.4,6.97 -342.3,9.3 -688.2,28.19 -1028.2,56.08 -347.5,28.62 -696.11,66.97 -1036.27,114.06 -242.01,33.4 -490,72.72 -737.14,116.81 l -72.17,12.91 L 8041.54,10486 H 16300 l -742.6,-6840.99 -257,-43.36 c -182.5,-30.76 -368.3,-59.32 -552.3,-84.82 -342.3,-47.46 -690.9,-85.93 -1036.3,-114.37 -338.9,-28.01 -684.8,-46.97 -1028.2,-56.33 -170.8,-4.83 -343.3,-7.21 -516,-7.21"
           style="fill:#371a45;fill-opacity:1;fill-rule:nonzero;stroke:none"
           id="path244" /></g><g
         id="g246"
         transform="matrix(2.8535334,0,0,2.8535334,-27842.673,-8905.2657)"><path
           d="m 13351.3,15510.1 c 0,0 -59,276.7 122.5,403.7 147.4,103.3 276.6,12.6 365.5,-78 61.7,-62.8 104.1,-125.7 119.9,-123.8 38.6,4.5 89.7,588 657.9,578.4 537.5,-9.1 578.3,-460.5 512.6,-676 l -1778.4,-104.3"
           style="fill:#fcd57e;fill-opacity:1;fill-rule:nonzero;stroke:none"
           id="path248" /></g><g
         id="g250"
         transform="matrix(2.8518657,0,0,2.8518657,-27842.673,-8905.2657)"><path
           d="m 13359.1,15518.9 c 0,0 -16.3,76 -5.6,166.6 -10.6,-90.6 5.6,-166.4 5.6,-166.4 l 16.5,1 c 0,-0.1 0,-0.1 0,-0.2 l -16.5,-1 m 567.5,33.5 h -0.1 l 13.7,0.8 c -2.2,-0.3 -4.5,-0.5 -6.8,-0.6 -2.3,-0.2 -4.5,-0.2 -6.8,-0.2 m 40,168.6 c -16.3,0 -58.4,62.1 -119.2,124 -58.8,59.8 -134.9,119.7 -222.4,123.8 87.5,-4.1 163.7,-63.9 222.4,-123.7 60.8,-62 102.9,-124 119.2,-124 0.3,0 0.5,0 0.8,0.1 7.4,0.8 15.3,23.3 27.3,58.9 -12,-35.7 -19.9,-58.2 -27.4,-59 -0.2,-0.1 -0.4,-0.1 -0.7,-0.1 m 1032.4,458.9 c -83,69.9 -203.4,117.1 -373.4,119.9 -4.7,0.1 -9.3,0.1 -13.9,0.1 -81.9,0 -152.9,-12.4 -214.4,-33.8 61.6,21.4 132.7,33.9 214.7,33.9 4.6,0 9,0 13.6,-0.1 165.8,-2.8 284.5,-47.6 367.2,-114.6 2.2,-1.8 4.2,-3.6 6.2,-5.4 m -603.9,85.5 c 0,0 0.1,0 0.2,0 -0.1,0 -0.2,0 -0.2,0 m 1.1,0.3 c 0.4,0.2 0.7,0.3 1,0.4 -0.3,-0.1 -0.6,-0.2 -1,-0.4"
           style="fill:#feeecb;fill-opacity:1;fill-rule:nonzero;stroke:none"
           id="path252" /></g><g
         id="g254"
         transform="matrix(2.8518657,0,0,2.8518657,-27842.673,-8905.2657)"><path
           d="m 13359.1,15519.2 c 0,0 -16.1,75.8 -5.6,166.3 9.8,82.4 41.7,177 128.3,237.7 46.7,32.6 91.5,45.9 133.8,45.9 3.2,0 6.4,-0.1 9.5,-0.2 87.5,-4.1 163.6,-64 222.3,-123.8 60.9,-62 103,-124 119.3,-124 0.2,0 0.5,0 0.6,0.1 7.5,0.8 15.4,23.3 27.5,59 40.5,120 127.6,389.4 400.4,485.3 0,0 0,0 0.1,0 0.3,0.1 0.7,0.2 0.9,0.3 0.4,0.2 0.8,0.3 1.1,0.4 0.1,0 0.1,0 0.1,0 61.5,21.4 132.5,33.8 214.4,33.8 4.6,0 9.1,0 13.8,-0.1 170.1,-2.9 290.5,-50 373.5,-119.9 80,-73.1 18.5,-195.9 -77.3,-195.9 -14.8,0 -30.5,2.9 -46.6,9.5 -67.9,27.6 -150.2,44.4 -249.5,46 -4.7,0.1 -9.3,0.2 -13.8,0.2 -362.5,0 -510,-244.1 -579.4,-415.5 -15.8,-38.8 -51,-66.1 -92.3,-71 l -13.6,-0.9 c -29.8,0.1 -58.8,11.7 -79.8,33.1 -60.7,61.7 -140,123.3 -231.1,123.3 -42.3,0 -87.1,-13.3 -133.9,-46 -54.1,-38 -86.9,-89.1 -106.1,-142.7 l -16.6,-0.9"
           style="fill:#feeecb;fill-opacity:1;fill-rule:nonzero;stroke:none"
           id="path256" /></g><g
         id="g258"
         transform="matrix(3.4411625,0,0,3.4411625,-27842.673,-8905.2657)"><path
           d="m 16251.1,12861.4 c 0,0 48.9,229.5 -101.6,334.9 -122.3,85.6 -229.3,10.4 -303.1,-64.7 -51.2,-52.1 -86.3,-104.3 -99.4,-102.7 -32,3.7 -74.3,487.6 -545.5,479.6 -445.8,-7.5 -479.6,-381.9 -425.1,-560.5 l 1474.7,-86.6"
           style="fill:#fcd57e;fill-opacity:1;fill-rule:nonzero;stroke:none"
           id="path260" /></g><g
         id="g262"
         transform="matrix(3.4308268,0,0,3.4308268,-27842.673,-8905.2657)"><path
           d="m 16300,12900.1 -10.8,0.5 c 0,0.1 -0.1,0.2 -0.1,0.3 l 10.9,-0.7 c 0,0 0,-0.1 0,-0.1 m -477.7,28.2 c -0.4,0 -0.8,0 -1.2,0 l -2.8,0.2 c -0.5,0 -0.9,0.1 -1.4,0.1 l 5.4,-0.3 m -27.3,139.8 c -0.2,0 -0.4,0 -0.5,0.1 -0.5,0 -1.1,0.2 -1.6,0.5 0.5,-0.2 1,-0.5 1.5,-0.5 0.2,0 0.3,0 0.5,0 13.6,0 48.6,51.5 99.2,103 32.3,32.8 70.9,65.6 114.2,85.1 -43.3,-19.5 -81.9,-52.3 -114.1,-85.1 -50.6,-51.5 -85.6,-103.1 -99.2,-103.1 m -28.4,64.3 c -44.5,131.1 -150.5,416.9 -507.8,416.9 -3.8,0 -7.6,0 -11.4,-0.1 -110.2,-1.8 -195.3,-26 -260.1,-64.1 64.8,38.1 149.9,62.4 260.1,64.2 3.8,0.1 7.6,0.1 11.3,0.1 357.4,0 463.5,-285.9 507.9,-417 m 446.7,92.2 c -4.8,4 -9.8,7.8 -15.1,11.5 -27.3,19.1 -53.8,30.2 -79.4,35.1 25.6,-4.9 52.1,-16 79.5,-35.1 5.2,-3.7 10.2,-7.6 15,-11.5"
           style="fill:#feeecb;fill-opacity:1;fill-rule:nonzero;stroke:none"
           id="path264" /></g><g
         id="g266"
         transform="matrix(3.440082,0,0,3.440082,-27842.673,-8905.2657)"><path
           d="m 16256.2,12865.5 -10.9,0.7 c -15.6,46.7 -43,92.4 -90.6,125.7 -38.7,27.1 -75.9,38.1 -111,38.1 -79.6,0 -148.3,-56.6 -199.8,-110.3 -15.9,-16.7 -37.7,-26.3 -60.6,-26.3 -1.2,0 -2.4,0.1 -3.6,0.1 l -5.3,0.3 c -31.9,2.5 -59.4,22.9 -70.9,52.7 -55.4,142.3 -175.9,357.9 -485.9,357.9 -3.7,0 -7.4,0 -11.2,-0.1 -103.8,-1.7 -185.2,-23.5 -248.4,-57.9 -13.4,-7.3 -26.7,-10.5 -39.4,-10.5 -63.3,0 -111.8,78.8 -63.4,136 24.6,29.1 54.9,55.3 91.8,76.9 64.6,38 149.5,62.2 259.4,64 3.8,0.1 7.6,0.1 11.4,0.1 356.3,0 462,-285.1 506.4,-415.8 12,-35.6 19.5,-59.8 26.3,-63.5 0.4,-0.4 1,-0.6 1.5,-0.6 0.2,0 0.4,0 0.6,0 13.5,0 48.4,51.4 98.8,102.7 32.2,32.8 70.7,65.5 113.9,85 24.7,11 50.9,17.9 78.4,17.9 10.5,0 21.1,-1.1 31.8,-3.1 25.5,-4.9 51.9,-16 79.1,-35 5.3,-3.7 10.3,-7.5 15,-11.4 130.4,-108.3 87.8,-317.8 86.6,-323.6"
           style="fill:#feeecb;fill-opacity:1;fill-rule:nonzero;stroke:none"
           id="path268" /></g><g
         id="g270"
         transform="matrix(2.8691779,0,0,2.8691779,-27842.673,-8905.2657)"><path
           d="m 13278.5,15327.3 c -45.5,0 -86.2,31.6 -96.1,77.8 -2.9,13.8 -69.5,340.6 161.7,502.5 214.9,150.5 400.1,4.6 504,-104.2 72.1,188 238.1,496.6 675.1,496.6 5.2,0 10.5,-0.1 15.8,-0.2 291.3,-4.9 442.6,-130 518.4,-234 133.3,-183.3 128.4,-419 83.8,-565.2 -15.9,-51.8 -70.8,-81 -122.6,-65.2 -51.9,15.8 -81.2,70.7 -65.4,122.6 32.9,107.5 29.7,276.1 -54.7,392.2 -71.9,98.8 -193.9,150.3 -362.8,153.2 -3.9,0 -7.8,0.1 -11.6,0.1 -369.1,0 -470,-299.6 -518.8,-444.4 -21.2,-62.9 -41.2,-122.1 -110.7,-130.3 -61.5,-7.4 -96.7,33.8 -141.3,85.8 -136.2,158.6 -211,191.8 -296.6,132 -123.7,-86.6 -82.5,-298.5 -82.1,-300.6 11.4,-53 -22.5,-105.2 -75.6,-116.6 -6.9,-1.4 -13.8,-2.1 -20.5,-2.1"
           style="fill:#371a45;fill-opacity:1;fill-rule:nonzero;stroke:none"
           id="path272" /></g><g
         id="g274"
         transform="matrix(3.4584042,0,0,3.4584042,-27842.673,-8905.2657)"><path
           d="m 16170.2,12688.7 c -7.5,0 -15.1,0.7 -22.8,2.3 -58.5,12.5 -95.9,70 -83.7,128.5 0.7,3.7 29.1,161.6 -57,222 -49.6,34.6 -95.7,28 -209.9,-105 -39,-45.4 -75.7,-88.4 -141,-80.5 -74.8,8.8 -96.8,74 -114.4,126.4 -62.2,184.4 -155.3,353 -413.8,350.2 -131.1,-2.3 -225.2,-41.3 -279.4,-116 -64.6,-88.8 -66.8,-218.5 -41.5,-301.4 17.6,-57.4 -14.8,-118.2 -72.2,-135.7 -57.4,-17.4 -118.1,14.8 -135.7,72.2 -38.8,127.3 -42.9,332.7 73.6,492.8 66.4,91.3 198.7,201.1 451.5,205.3 4.5,0.1 9,0.2 13.3,0.2 348.7,0 500.8,-232.5 570.1,-391.7 94.6,88.4 248.9,183.8 424,61.2 164.8,-115.4 168.7,-333.9 145.1,-444.8 -10.9,-51.1 -56,-86 -106.2,-86"
           style="fill:#371a45;fill-opacity:1;fill-rule:nonzero;stroke:none"
           id="path276" /></g><path
         d="m 9027.6633,5355.3557 c -803.5979,111.8126 -1624.1079,240.7739 -2443.9126,383.8284 l -376.0771,3462.6793 c 777.2875,-464.3993 1647.1275,-883.9333 2616.7995,-1222.4256 v 0 l 5.6378,-77.9874 197.5524,-2546.0947"
         style="fill:#b5202f;fill-opacity:1;fill-rule:nonzero;stroke:none;stroke-width:2.34901"
         id="path278" /><g
         id="g280"
         transform="matrix(2.5056447,0,0,2.5056447,-27842.673,-8905.2657)"><path
           d="m 16300,5515.43 c -520.8,43.22 -1043,100.87 -1552.8,171.46 -10.7,1.5 -21.5,3 -32.3,4.5 l -78.8,1016.15 -2.3,31.12 c 90.4,-31.87 182.6,-61.5 277.1,-89.25 407.6,-120 856.1,-204 1347.4,-237 v 0 l 41.7,-896.98"
           style="fill:#b9afbe;fill-opacity:1;fill-rule:nonzero;stroke:none"
           id="path282" /></g><g
         id="g284"
         transform="matrix(2.7473816,0,0,2.7473816,-27842.673,-8905.2657)"><path
           d="m 16300,4951.31 c -471.7,12.91 -948.3,38.99 -1416.6,77.38 -5.9,0.51 -11.8,1.02 -17.6,1.45 l -38,818.07 c 48.9,-3.42 98.1,-6.16 148.1,-8.21 91.3,-3.93 184.1,-5.9 278.5,-5.9 324.6,0 667.6,23.85 1030.6,76.01 v 0 l 15,-958.8"
           style="fill:#b5202f;fill-opacity:1;fill-rule:nonzero;stroke:none"
           id="path286" /></g><g
         id="g288"
         transform="matrix(2.9919138,0,0,2.9919138,-27842.673,-8905.2657)"><path
           d="m 15619.4,4537.59 c -215.5,0 -431.5,2.99 -646.3,8.87 -1.8,0.08 -3.6,0.08 -5.4,0.16 l -13.7,880.43 c 15.1,2.2 30.1,4.4 45.2,6.6 327.3,48.99 671.8,123.1 1033.9,225.8 74.7,21.35 148.5,44.59 221.4,70.34 15,5.34 30.4,10.68 45.5,16.65 l -18.8,-1199.51 c -1.8,-0.08 -3.7,-0.15 -5.5,-0.15 -217.3,-6.13 -436.6,-9.19 -656.3,-9.19"
           style="fill:#b9afbe;fill-opacity:1;fill-rule:nonzero;stroke:none"
           id="path290" /></g><g
         id="g292"
         transform="matrix(3.2468286,0,0,3.2468286,-27842.673,-8905.2657)"><path
           d="m 15003,4189.96 17.3,1105.33 v 0 c 415.3,149.91 798.4,372.74 1149.8,646.8 43.7,34.14 87.1,69.16 129.9,104.75 v -0.58 l -83.4,-1789.3 c -5,-0.44 -10,-0.8 -15,-1.23 -395,-32.63 -798.2,-54.77 -1198.6,-65.77"
           style="fill:#b5202f;fill-opacity:1;fill-rule:nonzero;stroke:none"
           id="path294" /></g><g
         id="g296"
         transform="matrix(3.5245054,0,0,3.5245054,-27842.673,-8905.2657)"><path
           d="m 14939,3921.58 76.8,1648.34 v 0.53 0 c 400.4,333.24 755.3,738.46 1067.2,1175.41 74.9,104.77 147.2,211.41 217,319.38 l -10.1,-130.37 -224.1,-2887.86 c -7.7,-1.07 -15.3,-2.14 -23.1,-3.2 -364.5,-50.52 -735.8,-91.64 -1103.7,-122.23"
           style="fill:#b9afbe;fill-opacity:1;fill-rule:nonzero;stroke:none"
           id="path298" /></g><g
         id="g300"
         transform="matrix(3.7368562,0,0,3.7368562,-27842.673,-8905.2657)"><path
           d="m 15152.9,3817.03 211.3,2723.76 9.5,122.96 v 0 c 383.9,591.9 690.4,1224.9 926.3,1797.57 l -493,-4541.82 -114.1,-19.24 c -178.3,-30.04 -359.9,-58.08 -540,-83.23"
           style="fill:#b5202f;fill-opacity:1;fill-rule:nonzero;stroke:none"
           id="path302" /></g><g
         id="g304"
         transform="matrix(3.7688027,0,0,3.7688027,-27842.673,-8905.2657)"><path
           d="m 12400.3,3502.52 c -172.2,0 -344.3,2.37 -516.4,7.04 -347.7,9.47 -695.5,28.42 -1042.3,56.84 -351.1,28.99 -701.3,67.32 -1050.63,115.69 -249.56,34.4 -498.87,74.04 -747.44,118.42 l -116.18,1070.54 c 35.03,-22.5 70.87,-44.75 107.46,-66.56 l 99.78,-918.78 c 217.53,-37.96 435.24,-72.18 648.46,-101.84 7.17,-1 14.34,-2 21.51,-2.99 338.84,-46.94 686.14,-85.27 1032.34,-114 4.2,-0.32 8.5,-0.69 12.8,-1.06 341.4,-27.99 688.8,-47 1032.7,-56.41 1.4,-0.06 2.8,-0.06 4.2,-0.12 170.6,-4.68 342,-7.05 513.1,-7.05 174.5,0 348.5,2.43 521.1,7.3 1.4,0 2.9,0.06 4.3,0.12 v 0 c 345,9.47 692.3,28.55 1032.6,56.66 4.3,0.37 8.6,0.68 12.9,1.06 v 0 c 344.1,28.6 691.3,67.06 1032.2,114.3 7.3,1 14.4,2 21.6,3 v 0 c 178.6,24.93 358.6,52.73 535.5,82.52 l 113.1,19.07 488.8,4503.32 c 49.1,119.23 95.2,235.79 138.2,348.79 l -536,-4937.87 -187.5,-31.6 c -186.2,-31.42 -373,-60.15 -560,-86.08 -349.2,-48.36 -699.5,-86.94 -1050.6,-115.93 -347,-28.67 -694.5,-47.62 -1042.3,-57.09 -174.4,-4.86 -348.9,-7.29 -523.3,-7.29"
           style="fill:#371a45;fill-opacity:1;fill-rule:nonzero;stroke:none"
           id="path306" /></g><path
         d="m 8506.1816,12082.223 c -1073.7334,926.215 -1949.4455,3917.212 -2092.2646,7494.524 -116.2764,2918.413 284.6996,5486.824 977.6588,6881.432 L 8506.1816,12082.223"
         style="fill:#fc9191;fill-opacity:1;fill-rule:nonzero;stroke:none;stroke-width:2.34901"
         id="path308" /><g
         id="g310"
         transform="matrix(2.4194595,0,0,2.4194595,-27842.673,-8905.2657)"><path
           d="m 15310.2,8551.85 c -97.8,0 -193.9,42.82 -286.6,122.62 l -460.7,5941.83 c 141.2,284.3 311.7,450.7 500.5,458.2 4.4,0.1 8.9,0.2 13.4,0.2 566.1,0 1080,-1433 1151.4,-3220.1 71.8,-1801.1 -333.2,-3279.64 -904.6,-3302.46 -4.5,-0.19 -9,-0.29 -13.4,-0.29"
           style="fill:#ffffff;fill-opacity:1;fill-rule:nonzero;stroke:none"
           id="path312" /></g><g
         id="g314"
         transform="matrix(2.4247682,0,0,2.4247682,-27842.673,-8905.2657)"><path
           d="m 14442.1,15729.4 h -1296.6 l -62,570.6 h 1314.3 l 44.3,-570.6"
           style="fill:#b5202f;fill-opacity:1;fill-rule:nonzero;stroke:none"
           id="path316" /></g><g
         id="g318"
         transform="matrix(2.4361374,0,0,2.4361374,-27842.673,-8905.2657)"><path
           d="m 16300,15656 h -1925.3 l -44.1,567.9 h 1943.2 l 26.2,-567.9"
           style="fill:#b9afbe;fill-opacity:1;fill-rule:nonzero;stroke:none"
           id="path320" /></g><g
         id="g322"
         transform="matrix(2.7240089,0,0,2.7240089,-27842.673,-8905.2657)"><path
           d="m 16300,14001.5 h -1722.5 l -23.5,507.9 h 1738.2 l 7.8,-507.9"
           style="fill:#b5202f;fill-opacity:1;fill-rule:nonzero;stroke:none"
           id="path324" /></g><g
         id="g326"
         transform="matrix(3.0131724,0,0,3.0131724,-27842.673,-8905.2657)"><path
           d="m 16292.9,12657.9 h -1557.1 l -7.1,459.1 H 16300 l -7.1,-459.1"
           style="fill:#b9afbe;fill-opacity:1;fill-rule:nonzero;stroke:none"
           id="path328" /></g><g
         id="g330"
         transform="matrix(3.3036278,0,0,3.3036278,-27842.673,-8905.2657)"><path
           d="m 16280.4,11544.9 h -1420 l 6.4,418.8 H 16300 l -19.6,-418.8"
           style="fill:#b5202f;fill-opacity:1;fill-rule:nonzero;stroke:none"
           id="path332" /></g><g
         id="g334"
         transform="matrix(3.5940362,0,0,3.5940362,-27842.673,-8905.2657)"><path
           d="m 16270.3,10612.1 h -1305.4 l 18,384.9 H 16300 l -29.7,-384.9"
           style="fill:#b9afbe;fill-opacity:1;fill-rule:nonzero;stroke:none"
           id="path336" /></g><g
         id="g338"
         transform="matrix(3.7894975,0,0,3.7894975,-27842.673,-8905.2657)"><path
           d="m 16260.4,10064.7 h -829.2 l 28.1,365.1 h 840.7 l -39.6,-365.1"
           style="fill:#b5202f;fill-opacity:1;fill-rule:nonzero;stroke:none"
           id="path340" /></g><g
         id="g342"
         transform="matrix(3.8152427,0,0,3.8152427,-27842.673,-8905.2657)"><path
           d="m 16250,9996.8 h -99.4 l 39.4,362.6 h -835 -1240.8 -1241 -1240.9 -1241 -1240.77 -835.31 l 39.4,-362.6 h -99 l -49.93,460.9 H 16300 l -50,-460.9"
           style="fill:#371a45;fill-opacity:1;fill-rule:nonzero;stroke:none"
           id="path344" /></g><g
         id="g346"
         transform="matrix(3.9795561,0,0,3.9795561,-27842.673,-8905.2657)"><path
           d="M 15978.6,10025.9 H 7514.96 c -177.5,0 -321.34,143.9 -321.34,321.3 v 169.2 c 0,177.5 143.84,321.3 321.34,321.3 h 8463.64 c 177.5,0 321.4,-143.8 321.4,-321.3 v -169.2 c 0,-177.4 -143.9,-321.3 -321.4,-321.3"
           style="fill:#ffce00;fill-opacity:1;fill-rule:nonzero;stroke:none"
           id="path348" /></g><g
         id="g350"
         transform="matrix(3.9795327,0,0,3.9795327,-27842.673,-8905.2657)"><path
           d="M 15978.8,10026 H 7514.95 c -177.49,0 -321.22,143.8 -321.22,321.3 v 169.1 c 0,35.6 5.78,69.6 16.53,101.4 42.08,-127.7 162.56,-220 304.69,-220 h 8463.85 c 142.1,0 262.6,92.3 304.7,220 10.7,-31.8 16.5,-65.8 16.5,-101.4 v -169.1 c 0,-177.5 -143.7,-321.3 -321.2,-321.3"
           style="fill:#b98f18;fill-opacity:1;fill-rule:nonzero;stroke:none"
           id="path352" /></g><g
         id="g354"
         transform="matrix(4.0026235,0,0,4.0026235,-27842.673,-8905.2657)"><path
           d="m 7471.67,10681.4 c -124.42,0 -225.6,-101.3 -225.6,-225.6 v -168.2 c 0,-124.4 101.18,-225.6 225.6,-225.6 h 8414.93 c 124.4,0 225.5,101.2 225.5,225.6 v 168.2 c 0,124.3 -101.1,225.6 -225.5,225.6 z M 15886.6,9874.25 H 7471.67 c -227.94,0 -413.39,185.45 -413.39,413.35 v 168.2 c 0,227.9 185.45,413.4 413.39,413.4 h 8414.93 c 227.9,0 413.4,-185.5 413.4,-413.4 v -168.2 c 0,-227.9 -185.5,-413.35 -413.4,-413.35"
           style="fill:#371a45;fill-opacity:1;fill-rule:nonzero;stroke:none"
           id="path356" /></g></g></g></svg>
